<mxfile host="app.diagrams.net" agent="Mozilla/5.0 (Windows NT 10.0; Win64; x64) AppleWebKit/537.36 (KHTML, like Gecko) Chrome/133.0.0.0 Safari/537.36 Edg/133.0.0.0" version="26.0.16">
  <diagram name="Page-1" id="hbmS2yzOFBh1u03z3mHZ">
    <mxGraphModel dx="1326" dy="1491" grid="0" gridSize="10" guides="1" tooltips="1" connect="1" arrows="1" fold="1" page="0" pageScale="1" pageWidth="827" pageHeight="1169" math="0" shadow="0">
      <root>
        <mxCell id="0" />
        <mxCell id="1" parent="0" />
        <mxCell id="TnqNEGDeOmvkH9XZ9pHF-1" value="DoblyItem&amp;lt;T&amp;gt;" style="swimlane;fontStyle=1;align=center;verticalAlign=top;childLayout=stackLayout;horizontal=1;startSize=26;horizontalStack=0;resizeParent=1;resizeParentMax=0;resizeLast=0;collapsible=1;marginBottom=0;whiteSpace=wrap;html=1;fillColor=#ffe6cc;strokeColor=#d79b00;" vertex="1" parent="1">
          <mxGeometry x="253" y="113" width="160" height="138" as="geometry" />
        </mxCell>
        <mxCell id="TnqNEGDeOmvkH9XZ9pHF-2" value="T Data" style="text;align=left;verticalAlign=top;spacingLeft=4;spacingRight=4;overflow=hidden;rotatable=0;points=[[0,0.5],[1,0.5]];portConstraint=eastwest;whiteSpace=wrap;html=1;" vertex="1" parent="TnqNEGDeOmvkH9XZ9pHF-1">
          <mxGeometry y="26" width="160" height="26" as="geometry" />
        </mxCell>
        <mxCell id="TnqNEGDeOmvkH9XZ9pHF-6" value="DoublyItem&amp;lt;T&amp;gt; Next" style="text;align=left;verticalAlign=top;spacingLeft=4;spacingRight=4;overflow=hidden;rotatable=0;points=[[0,0.5],[1,0.5]];portConstraint=eastwest;whiteSpace=wrap;html=1;" vertex="1" parent="TnqNEGDeOmvkH9XZ9pHF-1">
          <mxGeometry y="52" width="160" height="26" as="geometry" />
        </mxCell>
        <mxCell id="TnqNEGDeOmvkH9XZ9pHF-5" value="DoublyItem&amp;lt;T&amp;gt; Previous" style="text;align=left;verticalAlign=top;spacingLeft=4;spacingRight=4;overflow=hidden;rotatable=0;points=[[0,0.5],[1,0.5]];portConstraint=eastwest;whiteSpace=wrap;html=1;" vertex="1" parent="TnqNEGDeOmvkH9XZ9pHF-1">
          <mxGeometry y="78" width="160" height="26" as="geometry" />
        </mxCell>
        <mxCell id="TnqNEGDeOmvkH9XZ9pHF-3" value="" style="line;strokeWidth=1;align=left;verticalAlign=middle;spacingTop=-1;spacingLeft=3;spacingRight=3;rotatable=0;labelPosition=right;points=[];portConstraint=eastwest;" vertex="1" parent="TnqNEGDeOmvkH9XZ9pHF-1">
          <mxGeometry y="104" width="160" height="8" as="geometry" />
        </mxCell>
        <mxCell id="TnqNEGDeOmvkH9XZ9pHF-4" value="DoublyItem(T data)" style="text;align=left;verticalAlign=top;spacingLeft=4;spacingRight=4;overflow=hidden;rotatable=0;points=[[0,0.5],[1,0.5]];portConstraint=eastwest;whiteSpace=wrap;html=1;" vertex="1" parent="TnqNEGDeOmvkH9XZ9pHF-1">
          <mxGeometry y="112" width="160" height="26" as="geometry" />
        </mxCell>
        <mxCell id="TnqNEGDeOmvkH9XZ9pHF-7" value="DoblyLinkedList&amp;lt;T&amp;gt;" style="swimlane;fontStyle=1;align=center;verticalAlign=top;childLayout=stackLayout;horizontal=1;startSize=26;horizontalStack=0;resizeParent=1;resizeParentMax=0;resizeLast=0;collapsible=1;marginBottom=0;whiteSpace=wrap;html=1;fillColor=#ffe6cc;strokeColor=#d79b00;" vertex="1" parent="1">
          <mxGeometry x="-78" y="-60" width="258" height="466" as="geometry" />
        </mxCell>
        <mxCell id="TnqNEGDeOmvkH9XZ9pHF-9" value="DoublyItem&amp;lt;T&amp;gt; _head" style="text;align=left;verticalAlign=top;spacingLeft=4;spacingRight=4;overflow=hidden;rotatable=0;points=[[0,0.5],[1,0.5]];portConstraint=eastwest;whiteSpace=wrap;html=1;" vertex="1" parent="TnqNEGDeOmvkH9XZ9pHF-7">
          <mxGeometry y="26" width="258" height="26" as="geometry" />
        </mxCell>
        <mxCell id="TnqNEGDeOmvkH9XZ9pHF-10" value="DoublyItem&amp;lt;T&amp;gt; _tail" style="text;align=left;verticalAlign=top;spacingLeft=4;spacingRight=4;overflow=hidden;rotatable=0;points=[[0,0.5],[1,0.5]];portConstraint=eastwest;whiteSpace=wrap;html=1;" vertex="1" parent="TnqNEGDeOmvkH9XZ9pHF-7">
          <mxGeometry y="52" width="258" height="26" as="geometry" />
        </mxCell>
        <mxCell id="TnqNEGDeOmvkH9XZ9pHF-16" value="" style="line;strokeWidth=1;align=left;verticalAlign=middle;spacingTop=-1;spacingLeft=3;spacingRight=3;rotatable=0;labelPosition=right;points=[];portConstraint=eastwest;" vertex="1" parent="TnqNEGDeOmvkH9XZ9pHF-7">
          <mxGeometry y="78" width="258" height="8" as="geometry" />
        </mxCell>
        <mxCell id="TnqNEGDeOmvkH9XZ9pHF-13" value="int Count" style="text;align=left;verticalAlign=top;spacingLeft=4;spacingRight=4;overflow=hidden;rotatable=0;points=[[0,0.5],[1,0.5]];portConstraint=eastwest;whiteSpace=wrap;html=1;" vertex="1" parent="TnqNEGDeOmvkH9XZ9pHF-7">
          <mxGeometry y="86" width="258" height="26" as="geometry" />
        </mxCell>
        <mxCell id="TnqNEGDeOmvkH9XZ9pHF-17" value="bool IsEmpty" style="text;align=left;verticalAlign=top;spacingLeft=4;spacingRight=4;overflow=hidden;rotatable=0;points=[[0,0.5],[1,0.5]];portConstraint=eastwest;whiteSpace=wrap;html=1;" vertex="1" parent="TnqNEGDeOmvkH9XZ9pHF-7">
          <mxGeometry y="112" width="258" height="26" as="geometry" />
        </mxCell>
        <mxCell id="TnqNEGDeOmvkH9XZ9pHF-11" value="" style="line;strokeWidth=1;align=left;verticalAlign=middle;spacingTop=-1;spacingLeft=3;spacingRight=3;rotatable=0;labelPosition=right;points=[];portConstraint=eastwest;" vertex="1" parent="TnqNEGDeOmvkH9XZ9pHF-7">
          <mxGeometry y="138" width="258" height="8" as="geometry" />
        </mxCell>
        <mxCell id="TnqNEGDeOmvkH9XZ9pHF-14" value="DoublyLinkedList()" style="text;align=left;verticalAlign=top;spacingLeft=4;spacingRight=4;overflow=hidden;rotatable=0;points=[[0,0.5],[1,0.5]];portConstraint=eastwest;whiteSpace=wrap;html=1;" vertex="1" parent="TnqNEGDeOmvkH9XZ9pHF-7">
          <mxGeometry y="146" width="258" height="26" as="geometry" />
        </mxCell>
        <mxCell id="TnqNEGDeOmvkH9XZ9pHF-12" value="DoublyLinkedList(T data)" style="text;align=left;verticalAlign=top;spacingLeft=4;spacingRight=4;overflow=hidden;rotatable=0;points=[[0,0.5],[1,0.5]];portConstraint=eastwest;whiteSpace=wrap;html=1;" vertex="1" parent="TnqNEGDeOmvkH9XZ9pHF-7">
          <mxGeometry y="172" width="258" height="26" as="geometry" />
        </mxCell>
        <mxCell id="TnqNEGDeOmvkH9XZ9pHF-15" value="DoublyLinkedList(IEnumerabke&amp;lt;T&amp;gt; colection)" style="text;align=left;verticalAlign=top;spacingLeft=4;spacingRight=4;overflow=hidden;rotatable=0;points=[[0,0.5],[1,0.5]];portConstraint=eastwest;whiteSpace=wrap;html=1;" vertex="1" parent="TnqNEGDeOmvkH9XZ9pHF-7">
          <mxGeometry y="198" width="258" height="26" as="geometry" />
        </mxCell>
        <mxCell id="TnqNEGDeOmvkH9XZ9pHF-18" value="" style="line;strokeWidth=1;align=left;verticalAlign=middle;spacingTop=-1;spacingLeft=3;spacingRight=3;rotatable=0;labelPosition=right;points=[];portConstraint=eastwest;" vertex="1" parent="TnqNEGDeOmvkH9XZ9pHF-7">
          <mxGeometry y="224" width="258" height="8" as="geometry" />
        </mxCell>
        <mxCell id="TnqNEGDeOmvkH9XZ9pHF-19" value="void Add(T data)" style="text;align=left;verticalAlign=top;spacingLeft=4;spacingRight=4;overflow=hidden;rotatable=0;points=[[0,0.5],[1,0.5]];portConstraint=eastwest;whiteSpace=wrap;html=1;" vertex="1" parent="TnqNEGDeOmvkH9XZ9pHF-7">
          <mxGeometry y="232" width="258" height="26" as="geometry" />
        </mxCell>
        <mxCell id="TnqNEGDeOmvkH9XZ9pHF-20" value="void Delete(T data)" style="text;align=left;verticalAlign=top;spacingLeft=4;spacingRight=4;overflow=hidden;rotatable=0;points=[[0,0.5],[1,0.5]];portConstraint=eastwest;whiteSpace=wrap;html=1;" vertex="1" parent="TnqNEGDeOmvkH9XZ9pHF-7">
          <mxGeometry y="258" width="258" height="26" as="geometry" />
        </mxCell>
        <mxCell id="TnqNEGDeOmvkH9XZ9pHF-21" value="void AddFirst(T data)" style="text;align=left;verticalAlign=top;spacingLeft=4;spacingRight=4;overflow=hidden;rotatable=0;points=[[0,0.5],[1,0.5]];portConstraint=eastwest;whiteSpace=wrap;html=1;" vertex="1" parent="TnqNEGDeOmvkH9XZ9pHF-7">
          <mxGeometry y="284" width="258" height="26" as="geometry" />
        </mxCell>
        <mxCell id="TnqNEGDeOmvkH9XZ9pHF-29" value="void AddLast(T data)" style="text;align=left;verticalAlign=top;spacingLeft=4;spacingRight=4;overflow=hidden;rotatable=0;points=[[0,0.5],[1,0.5]];portConstraint=eastwest;whiteSpace=wrap;html=1;" vertex="1" parent="TnqNEGDeOmvkH9XZ9pHF-7">
          <mxGeometry y="310" width="258" height="26" as="geometry" />
        </mxCell>
        <mxCell id="TnqNEGDeOmvkH9XZ9pHF-30" value="void DeleteFirst(T data)" style="text;align=left;verticalAlign=top;spacingLeft=4;spacingRight=4;overflow=hidden;rotatable=0;points=[[0,0.5],[1,0.5]];portConstraint=eastwest;whiteSpace=wrap;html=1;" vertex="1" parent="TnqNEGDeOmvkH9XZ9pHF-7">
          <mxGeometry y="336" width="258" height="26" as="geometry" />
        </mxCell>
        <mxCell id="TnqNEGDeOmvkH9XZ9pHF-31" value="void DeleteLast(T data)" style="text;align=left;verticalAlign=top;spacingLeft=4;spacingRight=4;overflow=hidden;rotatable=0;points=[[0,0.5],[1,0.5]];portConstraint=eastwest;whiteSpace=wrap;html=1;" vertex="1" parent="TnqNEGDeOmvkH9XZ9pHF-7">
          <mxGeometry y="362" width="258" height="26" as="geometry" />
        </mxCell>
        <mxCell id="TnqNEGDeOmvkH9XZ9pHF-24" value="DoublyLinkedList&amp;lt;T&amp;gt; Reverse()" style="text;align=left;verticalAlign=top;spacingLeft=4;spacingRight=4;overflow=hidden;rotatable=0;points=[[0,0.5],[1,0.5]];portConstraint=eastwest;whiteSpace=wrap;html=1;" vertex="1" parent="TnqNEGDeOmvkH9XZ9pHF-7">
          <mxGeometry y="388" width="258" height="26" as="geometry" />
        </mxCell>
        <mxCell id="TnqNEGDeOmvkH9XZ9pHF-23" value="void Clear()" style="text;align=left;verticalAlign=top;spacingLeft=4;spacingRight=4;overflow=hidden;rotatable=0;points=[[0,0.5],[1,0.5]];portConstraint=eastwest;whiteSpace=wrap;html=1;" vertex="1" parent="TnqNEGDeOmvkH9XZ9pHF-7">
          <mxGeometry y="414" width="258" height="26" as="geometry" />
        </mxCell>
        <mxCell id="TnqNEGDeOmvkH9XZ9pHF-22" value="IEnumerator GetEnumerator()" style="text;align=left;verticalAlign=top;spacingLeft=4;spacingRight=4;overflow=hidden;rotatable=0;points=[[0,0.5],[1,0.5]];portConstraint=eastwest;whiteSpace=wrap;html=1;" vertex="1" parent="TnqNEGDeOmvkH9XZ9pHF-7">
          <mxGeometry y="440" width="258" height="26" as="geometry" />
        </mxCell>
        <mxCell id="TnqNEGDeOmvkH9XZ9pHF-25" style="edgeStyle=orthogonalEdgeStyle;rounded=0;orthogonalLoop=1;jettySize=auto;html=1;entryX=0.5;entryY=0;entryDx=0;entryDy=0;" edge="1" parent="1" source="TnqNEGDeOmvkH9XZ9pHF-9" target="TnqNEGDeOmvkH9XZ9pHF-1">
          <mxGeometry relative="1" as="geometry" />
        </mxCell>
        <mxCell id="TnqNEGDeOmvkH9XZ9pHF-27" style="edgeStyle=orthogonalEdgeStyle;rounded=0;orthogonalLoop=1;jettySize=auto;html=1;exitX=1;exitY=0.5;exitDx=0;exitDy=0;entryX=0.5;entryY=0;entryDx=0;entryDy=0;" edge="1" parent="1" source="TnqNEGDeOmvkH9XZ9pHF-10" target="TnqNEGDeOmvkH9XZ9pHF-1">
          <mxGeometry relative="1" as="geometry" />
        </mxCell>
      </root>
    </mxGraphModel>
  </diagram>
</mxfile>
